<svg xmlns="http://www.w3.org/2000/svg" xmlns:xlink="http://www.w3.org/1999/xlink" width="500" zoomAndPan="magnify" viewBox="0 0 375 374.999991" height="500" preserveAspectRatio="xMidYMid meet" version="1.0"><defs><clipPath id="a5a880cb82"><path d="M 147 224 L 262.5 224 L 262.5 243 L 147 243 Z M 147 224 " clip-rule="nonzero"/></clipPath><clipPath id="46d664bdd1"><path d="M 112.5 221.714844 L 136 221.714844 L 136 244.761719 L 112.5 244.761719 Z M 112.5 221.714844 " clip-rule="nonzero"/></clipPath><clipPath id="b5a9a417cd"><path d="M 147 178 L 262.5 178 L 262.5 197 L 147 197 Z M 147 178 " clip-rule="nonzero"/></clipPath><clipPath id="4583c93c40"><path d="M 112.5 176 L 136 176 L 136 199 L 112.5 199 Z M 112.5 176 " clip-rule="nonzero"/></clipPath><clipPath id="e5a4509621"><path d="M 147 132 L 262.5 132 L 262.5 151 L 147 151 Z M 147 132 " clip-rule="nonzero"/></clipPath><clipPath id="2c75d6ea09"><path d="M 112.5 130.03125 L 136 130.03125 L 136 153 L 112.5 153 Z M 112.5 130.03125 " clip-rule="nonzero"/></clipPath></defs><g clip-path="url(#a5a880cb82)"><path fill="#000000" d="M 262.5 233.519531 C 262.5 228.785156 258.65625 224.949219 253.914062 224.949219 L 156.011719 224.949219 C 151.269531 224.949219 147.421875 228.785156 147.421875 233.519531 C 147.421875 238.257812 151.269531 242.097656 156.011719 242.097656 L 253.914062 242.097656 C 258.65625 242.097656 262.5 238.257812 262.5 233.519531 " fill-opacity="1" fill-rule="nonzero"/></g><g clip-path="url(#46d664bdd1)"><path fill="#000000" d="M 123.949219 244.761719 L 124.523438 244.761719 C 130.847656 244.761719 135.972656 239.644531 135.972656 233.332031 C 135.972656 227.015625 130.847656 221.898438 124.523438 221.898438 L 123.949219 221.898438 C 117.625 221.898438 112.5 227.015625 112.5 233.332031 C 112.5 239.644531 117.625 244.761719 123.949219 244.761719 " fill-opacity="1" fill-rule="nonzero"/></g><g clip-path="url(#b5a9a417cd)"><path fill="#000000" d="M 253.914062 178.933594 L 156.011719 178.933594 C 151.269531 178.933594 147.421875 182.773438 147.421875 187.507812 C 147.421875 192.246094 151.269531 196.082031 156.011719 196.082031 L 253.914062 196.082031 C 258.65625 196.082031 262.5 192.246094 262.5 187.507812 C 262.5 182.773438 258.65625 178.933594 253.914062 178.933594 " fill-opacity="1" fill-rule="nonzero"/></g><g clip-path="url(#4583c93c40)"><path fill="#000000" d="M 124.523438 176.078125 L 123.949219 176.078125 C 117.625 176.078125 112.5 181.195312 112.5 187.507812 C 112.5 193.820312 117.625 198.941406 123.949219 198.941406 L 124.523438 198.941406 C 130.847656 198.941406 135.972656 193.820312 135.972656 187.507812 C 135.972656 181.195312 130.847656 176.078125 124.523438 176.078125 " fill-opacity="1" fill-rule="nonzero"/></g><g clip-path="url(#e5a4509621)"><path fill="#000000" d="M 147.421875 141.496094 C 147.421875 146.234375 151.269531 150.070312 156.011719 150.070312 L 253.914062 150.070312 C 258.65625 150.070312 262.5 146.234375 262.5 141.496094 C 262.5 136.761719 258.65625 132.921875 253.914062 132.921875 L 156.011719 132.921875 C 151.269531 132.921875 147.421875 136.761719 147.421875 141.496094 " fill-opacity="1" fill-rule="nonzero"/></g><g clip-path="url(#2c75d6ea09)"><path fill="#000000" d="M 124.523438 130.066406 L 123.949219 130.066406 C 117.625 130.066406 112.5 135.183594 112.5 141.496094 C 112.5 147.808594 117.625 152.929688 123.949219 152.929688 L 124.523438 152.929688 C 130.847656 152.929688 135.972656 147.808594 135.972656 141.496094 C 135.972656 135.183594 130.847656 130.066406 124.523438 130.066406 " fill-opacity="1" fill-rule="nonzero"/></g></svg>